# xmcd
#
# Track frame offsets: 
#        150
#        14950
#        28469
#        42228
#        55585
#        68876
#        82834
#        96878
#        110890
#        126246
#        140356
#        152253
#        165541
#        179480
#        193456
#        207672
#        222014
#        236633
#        249395
#        261572
#        274109
#        286390
#        298181
#        310472
#
# Disc length: 4380 seconds
#
# Revision: 7
# Processed by: cddbd v1.5.2PL0 Copyright (c) Steve Scherf et al.
# Submitted via: ExactAudioCopy v1.0b3
#
DISCID=7f111a18
DTITLE=Jimmy Yancey - Nobody In Mind
DYEAR=1900
DGENRE=Blues
TTITLE0=Jimmy's Stuff
TTITLE1=The Fives
TTITLE2=La Salle Street Breakdown
TTITLE3=Two O'Clock Blues
TTITLE4=Janie's Joys
TTITLE5=Lean Bacon
TTITLE6=Big Bear Train
TTITLE7=Lucille's Lament
TTITLE8=Beezum Blues
TTITLE9=Yancey Limited
TTITLE10=Rolling The Stone
TTITLE11=Steady Rock Blues
TTITLE12=P. L. K. Special
TTITLE13=South Side Stuff
TTITLE14=Yancey's Getaway
TTITLE15=How Long Blues
TTITLE16=How Long Blues No. 2
TTITLE17=Yancey Stomp
TTITLE18=State Street Special
TTITLE19=Tell 'Em About Me
TTITLE20=Five O'Clock Blues
TTITLE21=Slow And Easy Blues
TTITLE22=The Mellow Blues
TTITLE23=White Sox Stomp
EXTD=Digitally Remastered-History -(20.1946-HI)\r\nBig Joe Turner/Jimm
EXTD=y Yancey\r\nNobody In Mind -CD-1
EXTT0=
EXTT1=
EXTT2=
EXTT3=
EXTT4=
EXTT5=
EXTT6=
EXTT7=
EXTT8=
EXTT9=
EXTT10=
EXTT11=
EXTT12=
EXTT13=
EXTT14=
EXTT15=
EXTT16=
EXTT17=
EXTT18=
EXTT19=
EXTT20=
EXTT21=
EXTT22=
EXTT23=
PLAYORDER=
